<svg xmlns="http://www.w3.org/2000/svg" viewBox="0 0 100 100" width="20" height="20">
    <g fill="none" stroke="black" stroke-width="2">
        <line x1="50" y1="10" x2="50" y2="90" />
        <line x1="15" y1="25" x2="85" y2="75" />
        <line x1="85" y1="25" x2="15" y2="75" />
        <line x1="50" y1="10" x2="60" y2="30" />
        <line x1="50" y1="10" x2="40" y2="30" />
        <line x1="50" y1="90" x2="60" y2="70" />
        <line x1="50" y1="90" x2="40" y2="70" />
        <line x1="15" y1="25" x2="35" y2="35" />
        <line x1="15" y1="25" x2="25" y2="45" />
        <line x1="85" y1="25" x2="65" y2="35" />
        <line x1="85" y1="25" x2="75" y2="45" />
        <line x1="15" y1="75" x2="35" y2="65" />
        <line x1="15" y1="75" x2="25" y2="55" />
        <line x1="85" y1="75" x2="65" y2="65" />
        <line x1="85" y1="75" x2="75" y2="55" />
    </g>
</svg>
  